<svg width="38" height="40" viewBox="0 0 38 40" fill="none" xmlns="http://www.w3.org/2000/svg">
<path d="M37.4163 8.82541L19.2547 0.0577539C19.0937 -0.0199023 18.9062 -0.0199023 18.7453 0.0577539L0.583613 8.82541C0.381113 8.92315 0.252441 9.12822 0.252441 9.35307V30.646C0.252441 30.8708 0.381113 31.0759 0.583613 31.1736L18.7452 39.9413C18.8256 39.9801 18.9128 39.9995 18.9999 39.9995C19.0871 39.9995 19.1742 39.9801 19.2547 39.9413L37.4163 31.1736C37.6188 31.0759 37.7474 30.8708 37.7474 30.646V9.35314C37.7474 9.12814 37.6187 8.92322 37.4163 8.82541ZM18.9999 1.23611L35.8138 9.35307L30.9398 11.706C30.9089 11.6825 30.8763 11.6608 30.8406 11.6435L14.141 3.58182L18.9999 1.23611ZM12.8177 4.24432L29.6071 12.3495L26.1684 14.0096L9.38596 5.90768L12.8177 4.24432ZM29.9999 13.461V19.5974L26.7879 21.1481V15.0117L29.9999 13.461ZM36.5756 30.2783L19.5859 38.48V18.4885L23.6385 16.5321C23.9299 16.3913 24.0521 16.0411 23.9113 15.7496C23.7706 15.4583 23.4204 15.336 23.1289 15.4767L18.9999 17.4701L17.3753 16.6857C17.0838 16.5449 16.7335 16.6672 16.5928 16.9586C16.4521 17.25 16.5743 17.6003 16.8657 17.741L18.414 18.4885V38.48L1.42432 30.2781V10.2866L14.3618 16.5323C14.4439 16.572 14.5307 16.5907 14.6161 16.5907C14.8339 16.5907 15.0431 16.4687 15.1442 16.2594C15.2849 15.968 15.1627 15.6177 14.8713 15.477L2.18611 9.35307L8.00682 6.54307L25.6079 15.0402C25.6105 15.0438 25.6134 15.047 25.616 15.0505V22.0817C25.616 22.2833 25.7197 22.4707 25.8905 22.578C25.9853 22.6375 26.0935 22.6676 26.2021 22.6676C26.2889 22.6676 26.376 22.6483 26.4567 22.6093L30.8406 20.493C31.0431 20.3953 31.1717 20.1903 31.1717 19.9653V12.8954L36.5756 10.2867V30.2783Z" fill="#688800"/>
</svg>
